<?xml version="1.0" encoding="UTF-8"?>
<svg xmlns="http://www.w3.org/2000/svg" version="1.1" viewBox="0 0 595.3 317.6">
  <defs>
    <style>
      .cls-1 {
        fill: #fff;
      }
    </style>
  </defs>
  <!-- Generator: Adobe Illustrator 28.6.0, SVG Export Plug-In . SVG Version: 1.2.0 Build 709)  -->
  <g>
    <g id="Calque_1">
      <g>
        <path class="cls-1" d="M176.5,178.5c7.2,0,12.7-2.2,18.4-6.5,3.1-2.3,6.5-5.7,10.1-10,2.4-3,4.7-6.1,6.9-9.4,1.8-2.9,4.8-4.9,8.1-5.6,1-.2,2-.5,2.8-.7-.5,1-1.1,2.2-1.8,3.6-1.5,3.2-1.7,4.3-1.7,4.8,0,.9.5,1.4,1.3,1.4s.6-.1.9-.3c.2-.2.3-.4.9-1.8.3-.8.9-1.9,1.8-3.2,2.8-4.1,5.9-7,9.3-8.6.3-.1.5-.4.5-.7,0-.3-.2-.6-.5-.7-.2,0-.8-.2-2.9-.4-1.6-.2-3-.3-4.2-.3s-.6.2-.7.4c-.3.7-.8,1.2-1.1,1.4-1.7.6-4.3,1.4-7.5,2.2,3.4-5,7-9.3,10.7-12.6,2-1.8,3.9-3.3,5.8-4.5,1.9-1.2,3.4-2,4.6-2.3,1.2-.4,2-.6,2.2-.6.6-.1,1-.6,1-1.1s-.6-1.1-1.8-1.1c-3.9,0-8.7,2-14.4,6-5.6,3.9-10.6,9-15,15-1.7,2.3-4.1,3.9-6.9,4.7-5,1.4-9.5,3.2-13.5,5.4-5.1,2.9-8.1,5.7-9.4,8.6-.3.4-.4.8-.4,1.3s.3,1,1.1,1,1-.5,1.9-1.9c.4-.7,1.2-1.6,2.5-2.7,4.1-3.7,10.7-6.7,19.7-8.9,0,0,.2,0,.1.1-4,6.6-7.9,12-11.5,15.9-1.8,2-7.2,9.6-18,9.6s-8.6-1.5-8.2-2.9c.1-.4.6-.3,1-.3,1,0,1.8-.3,2.5-.9.7-.6,1-1.4,1-2.3s-.4-1.7-1.1-2.1c-1.2-.8-2.3-.7-3.6-.4-2.2.6-3.3,2.1-3.3,4.3,0,3.8,5.1,7.4,12.4,7.4Z"/>
        <path class="cls-1" d="M369.3,131.7c-.5.5-.9,1-1.2,1.6-.3.6-.4,1.3-.4,2.1s.3,1.6,1,2.3c.6.7,1.4,1,2.4,1s1.5-.1,2.2-.4c.6-.3,1.2-.6,1.7-1.1.5-.5.9-1,1.2-1.6.3-.6.5-1.3.5-2.1s-.3-1.6-.9-2.3c-.6-.7-1.6-1.1-2.9-1.1s-2.4.5-3.4,1.6Z"/>
        <path class="cls-1" d="M440.3,138.4c.6-.3,1.2-.6,1.7-1.1.5-.5.9-1,1.2-1.6.3-.6.5-1.3.5-2.1s-.3-1.6-.9-2.3c-.6-.7-1.6-1.1-2.9-1.1s-2.4.5-3.4,1.6c-.5.5-.9,1-1.2,1.6-.3.6-.4,1.3-.4,2.1s.3,1.6,1,2.3c.6.7,1.4,1,2.4,1s1.5-.1,2.2-.4Z"/>
        <path class="cls-1" d="M256.6,239.1c.1.3.4.4.7.4,1,0,1.7-.1,2.3,0,0,0,.1,0,.2,0,.2,0,.5-.1.6-.3l12.9-18.1s0,0,0,0h6.1l-12.3,17.2c-.2.2-.2.6,0,.8.1.3.4.4.7.4,1.1,0,1.9-.1,2.4,0,.3,0,.6,0,.8-.3l12.9-18.1s0,0,0,0h7.4c.4,0,.7-.2.7-.6,0-.3.3-.7.9-1.7.2-.2.2-.5,0-.8s-.4-.4-.7-.4h-6l5-7.1s0,0,0,0h6.4c.4,0,.7-.3.8-.6,0-.2.2-.7.9-1.6.2-.2.2-.5,0-.8-.1-.3-.4-.4-.7-.4h-5l11.9-16.7c.2-.3.2-.6,0-.9-.2-.3-.5-.4-.9-.3,0,0-.2,0-1,0s-.7,0-1-.2c-.3,0-.7,0-.8.3l-12.6,17.7s0,0,0,0h-6.1l11.9-16.7c.2-.3.2-.6,0-.9-.2-.3-.6-.4-.9-.3,0,0-.2,0-1.2,0s-.5,0-.9-.2c-.3,0-.7,0-.8.3l-12.6,17.7s0,0,0,0h-7.4c-.3,0-.5.1-.7.4-.2.3-.4.6-.6.8l-.8,1c-.2.2-.2.5-.1.8.1.3.4.4.7.4h6.4l-5,7.1s0,0,0,0h-6.4c-.3,0-.5.2-.7.4-.2.3-.3.6-.5.8l-.8,1c-.2.2-.2.6-.1.8.1.3.4.5.7.5h5.4l-12.3,17.2c-.2.2-.2.6,0,.8ZM280.9,210.5s0,0,0,0h6.1l-5,7.1s0,0,0,0h-6.1l5-7.1Z"/>
        <path class="cls-1" d="M330.5,188.1c-15.6-1.7-30.2,21.3-17.5,25.6,6.2,2.1,15.4-6.1,15.8-14.9s-.7-2.4-1.8-2.4-1.2,1.3-1.3,1.9c-.8,10.2-8.5,13.8-12,12.2s.4-15,12-18.5c7-2.1,13.4,2.7,6.1,13.9-1.1,1.6-2.4,3.3-4.2,4.8-1.7,1.6-4,3-6.7,4.4-2.8,1.4-4.9,2.6-6.3,3.5-.8.5-1.6,1.1-2.2,1.6-.6.5-1.3,1.1-1.9,1.8-.8.8-1.2,1.7-1.2,2.5s.8,1.5,1.4,1.5,1.2-.5,1.6-1.1c2.1-3.9,7.5-6.8,11.1-6.8,13,0-1.4,21.4-16.1,27.4-4,1.6-6.9,1.1-8.5.8-2.7-.6-5.1-1.3-5.5-3-.2-.7.1-1.3.1-2s-.3-1.7-.8-2.3c-1.1-1.2-3.2-1.3-4.4,0-.6.6-.8,1.4-.8,2.3,0,1.9,1.4,3.6,4.4,5.2,2.9,1.6,6.1,2.4,9.5,2.4s4.9-.3,7.3-1c-11.6,8.1-28.9,16.6-51.4,16.6s-10.2-10.2-6.9-15.3c1.2-2.2-2.6-.8-3.9-.2-9.2,4.1-8.4,11.7-2,15.8.3.7-2.1.5-3,.5-26.7-1.3-55.9-18.5-49.1-39.6,6.9-20,49.2-24.2,56.5-2.3,3.4,8.8-5.3,20.4-18.5,19.2-1.5-.2-2.9-.6-4.2-1.2-5.6-2.5-6.3-8.1-8.9-7.4-3.7,1.5-2.6-1.3-3.2-3.9-.4-2.9-2-3.8-3.5-1.5-2.3,3.5-2,7.5.5,10.9,4.4,6.9,20.7,10.3,29.3,6.3,10.2-4.4,15.2-14.5,12.4-22.9-7.9-24.4-54.4-21.1-63.6,1.1-4,10,0,20.3,9.3,28.5,2.7,2.4,6.1,4.6,9.4,6.4.8.5,1.4.9,1.4,1.3,0,.5-1.1.9-1.7,1.1-3.9,1.1-7.2,3.4-9,6.2-1,1.5-3.1,5.9.9,4.5,16.4-6.2,30,5.1,77.3-6.9,38.2-9.6,56.5-30.3,56.5-41.4s-1.1-5.5-3.3-7c-1.1-.8-2.4-1.3-3.8-1.5,11.5-4.9,19.7-25.6,4.2-27.2Z"/>
        <path class="cls-1" d="M118.7,149.1c-1.9,1.1-4.2,2.8-6.7,5-2.6,2.3-4.5,4.8-5.8,7.5-3,6.3-3,11.2,0,14.5.7.8,1.7,1.4,2.8,1.9,1.1.5,2.7.7,4.8.7s4.3-.4,6.6-1.2c2.3-.8,4.4-1.8,6.4-3.1,2-1.2,3.8-2.6,5.4-4.1,1.6-1.5,3-2.9,4.3-4.2,1.2-1.3,2.3-2.5,3.1-3.6,1-1.2,1.4-1.7,1.7-1.9.2-.1.3-.4.3-.6s-.1-.4-.3-.6l-1-.8c-.3-.2-.7-.2-1,0-.2.2-.6.6-1.6,1.9-.7.9-1.7,2.1-2.8,3.3-1.1,1.3-2.5,2.6-4,4-1.5,1.4-3.1,2.7-4.9,3.9-1.8,1.2-3.8,2.2-5.8,2.9-4,1.5-7.7,1.5-9.3.1-.8-.6-1.1-1.7-1.1-3.3s.1-1.4.4-2.3c.8-2.5,2.9-4.5,5.5-5.4,2.9-1,5.4-2.1,7.6-3.1,8.5-4,12.5-7.7,12.2-11.3-.1-1.7-1.2-3.7-5.8-3.7s-7,1.1-10.8,3.3ZM114.6,161.3c1.2-1.6,2.8-3.5,4.7-5.8,4-4.7,7.5-7.9,9.8-7,2.7,1.1,0,7.2-14.5,12.8Z"/>
        <path class="cls-1" d="M188.4,258.2l-.4-.2c-14.5-6.7-22.7-19.7-23.3-32.2-.1-4.8,3.3-8.1,7.1-12,3.3-3.5,3.3-8.2,1.3-12.1-.7-.4-1.7.5-2.2,1-6.2,6.2-9.4,13.8-9.7,21.5,0,1.5-.3,2.2-1,2.1-4.4-8.1-12.5-17.1-20.1-23.5-12.9-11.1-39.3-18.8-39.8-30.6,0-1.5-1.9-1.9-4.3-.3-2.8,1.9-8.8,4-13.3,4s-11.9-.7-16.8-2.1c-.4-.1-.5-.6-.1-.8,4.4-2.8,8.9-6.8,13.3-11.9,2.7-3.1,6.3-5.3,10.2-6.4,3.2-.9,6.4-2.2,9.8-3.7,2.7-1.3,5.4-2.7,8.1-4.2,2.6-1.6,5.1-3.2,7.5-4.9,2.3-1.7,4.5-3.5,6.5-5.4,2-1.9,3.7-3.7,5.2-5.6,1.5-1.9,2.6-3.8,3.4-5.6.9-1.9,1.3-3.5,1.3-4.8s-.2-2.4-.6-3.2c-1.3-2.4-3.9-3.6-7.7-3.6-6.1,0-23,5.6-40.4,31.6l-1.6,2.2c-13.3,17.7-40.5-9.4-9.3-19.5,2-.7,3.2-.5,3.2-1.4s-.2-1.6-1.8-1.3c-25.7,4.7-23.5,27.8-3.8,30.9,4.6.7,3.5,2.9,2.1,4.6-3.9,4.8-7.3,8.4-10.3,10.6-.5.4-1.3.5-1.9.3-5.4-1.8-9.8-2.7-13.1-2.7s-6.3.4-8.3,1.3c-1,.4-1.8,1-2.4,1.7-.6.7-.9,1.5-.9,2.2s.3,1.4.8,2.1c1.6,1.8,4.8,2.6,10,2.6s10.5-.9,15.1-2.8c.4-.2.9-.2,1.4,0,8.9,2.6,16.1,3.9,21.5,3.9s6-.6,8.7-1.7c1.7-.7,3.5.3,3.8,2.1.2,1.3.6,2.6,1.2,3.5.8,1.3,1.3,2.1.6,2.5-3.3.8-7.6.2-11.2,1-10.1,1.6-18.5,5.9-23,12.5-10.7,14.6,9.2,35.8,31.4,29.6,16.4-3.9,22.5-24.1,3.7-29.1-18-5.3-24.3,12.2-16.8,7.1,2.3-1.6,2.9-3,5.1-1.3,1.4.8,5.1-1.7,9.6-1.4,3.8.1,7.1,2,8.5,4.6,7.4,12-13.1,23.4-27.6,17-11.2-4.4-16.9-15.4-12-24.2,9.2-15.6,37.9-16.2,55.7-7.7.8.4,2.9,1.2,2.1,1.8-.5.3-1.4.4-2.2.5-5,.8-8.5,5.1-6.5,9.7.9,2.1,2.3,4,4.2.8,9.7-17.4,34.1,11.4,36,14.9.3.5-.3,1.1-.7.7-7.6-6.3-27.4-10.2-36.6,1.5-5.7,7.3-3.4,18.2,7.7,21.3,10.1,3.5,22.6-2.8,19.6-11.1-.7-1.2-1.7,1.2-2.2,1.6-1.8,2.3-5.1,4.3-8.3,4.3-1.5-.2-1.7-1.5-2.3-2.3-1.4-2.9-9.3-3.2-11.9-6.4-3.2-5,2.9-11.1,13.5-11.1,30.9,0,29.6,28.4,53.8,41.4,4.4,1.7,5.5-2.3,1.3-3.5ZM126.6,117.1c6.2,6.2-15.2,29.4-40.9,35.5,24.1-32.2,37.2-39.2,40.9-35.5ZM45.6,175.9c-9.4,0-8.9-3.4.2-3.4s5.9.5,10.1,1.5c-3,1.2-6.4,1.9-10.3,1.9Z"/>
        <path class="cls-1" d="M479.2,66.9c-13.3-3.4-21.6-4.4-29.2-10.5-3.4-2.5-2.7,2.3-2.2,4,.8,3.3,3.2,6.5,6.7,8.7.6.4,1.5,1.1,1.3,1.6-.1.3-.8.6-1.7.8-3.7.8-7.6,1.8-10.9,3.3-11.4,5-17.6,13.5-17.6,24.3,0,26.1,46,41.5,61,20.1,15.3-21.8-16-41.5-35.5-28.3-3.5,2.4-4.9,6.3-3.8,10.3.8,2.6,2.5,2.3,3.8-.4,1.4-2.2,1.2-5.3,4.3-2.7,2.2,1.5,4.6-4.3,10.7-4.3,17.4,0,24.7,13.6,18.6,23.1-13.3,20.9-55.5,4.4-55.5-18.4s33-29.7,58.8-22.8c.9.2,3.2.7,2.7,1.3-7.3,1.9-10.4,9-2.9,15.6,1.1,1,4.3,3.5,3.8,1.1-1.6-5.9.8-15.8,11.3-12.5,22.9,7.3,53.4,23.3,54.8,57.5,1.2,29.3-39.1,46-39.1,32.9s3.3-6.7,5.1-7.4c3.2-1.1,6-2.2,8.3-3.3,8.5-4,12.5-7.7,12.2-11.3-.1-1.7-1.2-3.7-5.8-3.7s-10.3,1.3-17.5,8.3c-5.3,5.1-8.8,12.9-21.1,20.5-5.1,3.2-6.6.6-4.2-2.5,4-4.9,16-19.5,16-19.5l4.4-5.1c.2-.2.2-.6,0-.9-.1-.3-.4-.4-.8-.4-1.2.1-3.1.2-5.3,0-1.1,0-2.1.4-2.8,1.2-3.5,4.4-14.6,18.1-25.1,26.2-5.6,4.3-10.2,1.4-3-6.9,3.9-4.6,12.9-15.3,16.4-19.2.2-.3.3-.6,0-.9-.2-.3-.5-.5-.9-.4-.1,0-.6.1-2.3.1h-1.5c-.7,0-1.6,0-2.7-.3-.3,0-.5,0-.7.2-6.7,8.3-20.2,24.5-26.5,28.4-3.5,2.2-7.6.7-3.2-5.2,1.2-1.6,10.3-13,16.4-20.6.2-.2.2-.6,0-.8s-.4-.4-.7-.4c-.8,0-2.1,0-3.9,0s-1.3,0-1.7-.3c-.3-.1-.7,0-.9.2l-2.3,3c-.3.4-.7.9-1.1,1.4.5-2.7-1.1-5.6-6.3-5.6-8.3,0-18.7,8-24.8,15.7-4.8,6-8.4,9.9-12.7,12.4-4.9,2.8-7,0-5.1-2.9.6-.9,1.5-2.2,2.8-3.8,1.2-1.6,6.9-8.5,16.9-20.3.2-.2.2-.6,0-.9-.2-.3-.5-.4-.8-.4-.5,0-1.1,0-1.8,0h-2.1c-1.4,0-1.9,0-2-.1-.3,0-.6,0-.8.3l-7,8.3c-2,2.4-3.7,4.5-5,6.3-.6.7-1.1,1.4-1.5,2.1-.6.7-1.2,1.3-1.8,2-1.2,1.2-2.4,2.5-3.8,3.8-1.3,1.3-2.8,2.3-4.1,3.4-8.3,6.8-11.8,2.5-3.6-7.3,5-5.9,18.3-24.9,18.3-24.9.2-.1.4-.2.7-.3h12c1.8,0,1.9-1.1,1.9-1.4s-.2-1.4-2-1.4h-7.5c-1.1,0-1.7-1.2-1.1-2.1l6.2-8.4c.2-.3.2-.6,0-.9s-.5-.4-.8-.4c-1.9.3-3.8.3-5.7,0-.5,0-1,.1-1.3.6-1.5,2.2-6.3,8.8-7.6,10.7-.4.2-.6.3-1,.5h-3.1c-1.7,0-2.5.5-2.5,1.4s.3,1.4,2.1,1.4h2.1c-5.2,8.2-16.7,23.8-22.7,27.9-.9.6-2.1,0-2-1.2.3-2.1.2-4.5-.3-7.2l-1.1-7.5c-.2-1.1-.2-2-.2-2.8v-.5c0-.1,0-.2,0-.3,0,0,0-.2.3-.5.1-.2.5-.7,1.6-1.9,1-1.2,1.5-2.1,1.6-2.9,0-.7-.3-1.2-.8-1.7-.5-.4-1.1-.6-1.8-.6-2,0-2.8,2.6-3,3.8,0,.1,0,.2-.1.3-1.2,1.5-5.2,6.3-11.8,14.2-.2.2-.6.7-1.4,1.6-.8.9-1.8,2-2.9,3.2l-3,3c-.5.3-1,.6-1.6,1-.8.6-1.6,1.4-2.2,2.3,0,.1-.1.3-.2.4-.6.5-1.2,1-1.8,1.4-1.6,1.2-3.2,2.2-4.7,3-1.5.8-3,1.1-4.7,1.1s-1.6-2.2-.4-4.1c.6-.9,1.5-2.2,2.8-3.8,1.2-1.6,6.9-8.5,16.9-20.3.2-.2.2-.6,0-.9-.2-.3-.5-.4-.8-.4-.5,0-1.1,0-1.8,0h-2.1c-1.4,0-1.9,0-2-.1-.3,0-.6,0-.8.3l-7,8.3c-2,2.4-7.7,10.8-15.8,17.6-7.5,6.3-15.2,2.9-4.3-7.3,6.9-6.4,11.5-9.2,11.5-12.2s-.3-1.5-2-1.5c-9.9,0-14-2.4-12-4.5s2.8-6.4-2.3-6.4-2.1,6-2.7,9c-1.4,7.6-18.1,20.4-19.5,21.6-8.5,6.9-11.9,4.4-7.8,0l15.1-18.4,4.4-5.1c.2-.2.2-.6,0-.9s-.4-.4-.8-.4c-1.4.2-3.4.2-5.9,0-.8,0-1.5.2-2,.8l-9.8,11.8c-5.4,6.6-10.5,12-15.4,15.2-5.6,3.6-12.4,3-3.1-7.3l9-10.8c1.4-1.7,3.9-4.5,7.4-8.4.2-.3.3-.6,0-.9-.2-.3-.5-.5-.9-.4-.1,0-.6.1-2.3.1h-1.5c-.7,0-1.6,0-2.7-.3-.3,0-.5,0-.7.2-1.4,1.5-2.8,3.1-4.1,4.7l-8.2,9.9c-.4.5-.8,1.1-1.2,1.6-.4.4-.8.9-1.2,1.4-1.1,1.3-2.5,2.6-4,4-1.5,1.4-3.1,2.7-4.9,3.9-1.8,1.2-3.8,2.1-5.8,2.9-14.1,5.4-15-6.8-4.3-10.9,2.8-1.1,5.2-2,7.2-2.9,8.5-4,12.5-7.7,12.2-11.3-.1-1.7-1.2-3.7-5.8-3.7-9.9,0-17.8,8.5-23.1,15.5-4.8,6.3-17.6,17.2-20.3,14.4-1.7-1.8,1.3-6,2.4-7.5s15.7-21.9,44.7-62.3c.2-.3.2-.6,0-.9s-.5-.4-.8-.4c-1.4.2-2.8.3-4.3.2-1.4,0-2.7.5-3.5,1.6l-1.7,2.5c-1.2,1.3-2.6,2.5-4.2,3.4-1.3.7-2.8,1.2-4.5,1.6-1.7.4-3.6.6-5.6.6-8.1,0-12.1-1.6-22.2-1.6s-23.5,2.4-32.6,9.7c-17.3,13.9-3.1,29,13.6,14.6,9.6-8.3,10.3-16,7.5-16s-1.2,1.3-1.2,2.2c0,2.2-.4,5-5.7,9.6-14.1,11.9-22,2.5-13.5-6.1,3.7-3.8,12.5-8.8,21.7-8.8s18.1,2,26.8,2,7.1-.5,10.2-1.4c1.3-.4,2.4,1,1.6,2.1l-24,34.4c-2,2.5-4.4,6.4-8.2,12.4-3.8,6-1,11.1,4.3,11.1s7.4-2.3,13.6-7.7c1.3-1.1,3.3-.5,3.7,1.1.9,3.8,4.3,6.7,9.9,6.7s16.2-6.6,17.6-7.8c-.2.7-.3,1.3-.2,1.9,0,.9.2,1.7.4,2.3.9,2.3,2.9,3.6,5.9,3.6s7.5-1.9,11.9-5.6c.9-.8,2.3,0,2.2,1.1-.3,6.4,8.3,5.6,15.6-.3,7.4-6,14.9-13.9,20.3-19,1.7-1.6,3.5-3,5.2-2.7,1.5.3,2.4.6,4.3,1,.7.1.9,1.1.3,1.5-11.2,7.9-16.7,13.9-16.7,18.3s.6,3,1.8,4c1.2,1,2.7,1.4,4.6,1.4,3.9,0,8.2-1.9,13-5.8.6-.5,1.4-.1,1.5.6,0,2.1,1.2,5.1,6.7,5.1s6.2-1.3,10-3.8c.4-.2.8,0,1,.3,2.9,6.3,18.2,4.9,27.3-1.5,1.2-.8,2.9-.3,3.2,1.1.4,2.2,2.3,3.9,5.7,3.9s7.2-1.6,11.4-4.9c.7-.6,1.8-.2,2.1.7.4,1.9,2,4.2,6.6,4.2s6.7-1.5,10.7-4.4c1.4-1,2.7-2.1,4-3.2,0,.3,0,.6,0,1,0,4.3,2.2,6.6,6.3,6.6s5.5-2.6,6.6-2.1c2.2,1.2-31.2,31.6-18.6,37,5.5,2.3,14.4-6.1,18.1-10.8,5.1-6.5,8.9-13.7,11.2-21.6.4-1.5,2-2.6,3.6-2.5,4,.3,7.2-.9,10.1-3.7.9-.8,2.3-.6,2.8.5.7,1.6,2.2,3.2,5.9,3.2s7.6-1.8,12.1-5.6c.9-.7,2.2-.2,2.2.9,0,2.5,1.6,4.7,5.4,4.7s11.3-5,14.8-8.2c1-.9,2.5-.3,2.6,1,.4,3,2.6,7.6,9.9,7.6,15.5,0,37.9-16,37.9-40.1s-33.7-59.8-81.6-71.9ZM528.3,155.5c4-4.7,7.3-7,9.8-7s1.6.3,1.6,1.8-.4,1.7-1.1,2.6c-2.3,2.8-7.3,5.6-15,8.5,1.2-1.6,2.8-3.5,4.7-5.8ZM259,155.5c4-4.7,7.3-7,9.8-7s1.6.3,1.6,1.8-.4,1.7-1.1,2.6c-2.3,2.8-7.3,5.6-15,8.5,1.2-1.6,2.8-3.5,4.7-5.8ZM374.7,173c-5.5,4-13.3,3.3-13.3.2s.2-.9.4-1.3c.6-.5,1.2-1,1.7-1.5,0,0,0,0,0,0,.9.7,1.9.6,2.9.3,1.5-.5,2.4-1.3,2.5-2.5,0-1-.4-1.7-1.2-2.1,0,0,0,0,.1-.1,1.2-1.3,13.3-15.8,13.3-15.8-2.6,5.7,2.4,16.3-6.6,22.9ZM428.2,210.2c-4-1.7,4.8-11.7,13.1-21.8l8.7-10.1c.4-.5,1.3-.2,1.2.5-1.1,14.4-18.5,33.3-22.9,31.4ZM449.8,168.2c-10.6,10.5-14.7,7.3-14.7,4.8s2.1-5.6,6.2-10.6c3.5-4.2,7.2-7.4,10.7-10,7.1-5.2,12.3-.9,7.3,5.3-.5.6-1.9,2.4-4.4,5.3-1.4,1.6-3.1,3.3-5,5.1Z"/>
        <path class="cls-1" d="M314.5,85.9c3.4,2.7,7.5,5.1,12.3,7.3.7.3-.4,1.2-1.7,1.9-2.2,1.2-3.5,3.4-3.8,5.8-.1.9-1.4,2.9-1.7,4.2-.2,1.1.8,2.7,1.9,1.8,9.7-7,55,3.5,79.7-19.6,0,.3-.2.6-.4,1-3.2,7-3.8,15.2-1.2,23.6.2.7.7,1.9,1.5,1.9,3.6-2.6,5.7-6.7,4.4-11.3-1.6-5.2-3.1-9.7-.8-13.9,6.2-10.9,19.6-18.7,35.5-18h.4c4.3.9,5.1-3.1.4-3.7-12.3-.2-23.5,3.4-31.5,9.8-9.2,6.6-24.8,11.5-37.5,1.4-4.8-3.8-9.8-12-4.7-15,3.8-1.6,10.9,1.7,13.5-.2.9-.5,1.7-1.5,3.1-1,2.8,1.5,4.9,4.8,5.4,7.7.2.6,0,3.2,1.2,2.5,6.4-6-1.8-17.4-12.4-18.9-11.2-2.3-18.8,6.4-16.5,15.4,2.7,14.1,23.5,21.9,36.3,18,.9-.2,1.6-.4,2.1-.4-9.2,6.7-21.7,10.1-29.7,9.7-7-.3-14.5-5.6-15.3-11.5-.3-3.7-2.3-2.7-4.1-1.2-3.9,3.2-2.7,8.6,1.3,11.6.6.5,1.3,1,1.7,1.5.4.8-1.8.6-2.7.6-10.4-.3-22.8-3.9-32-10.3-26.4-18.4-9.3-41.2,9.3-37.8,19.9,3.6,24.8,20.1,13.7,27.4-6.4,4.2-10.5-5.2-15.5-5.4-2,0-3.6-1.5-4.5-3.3-4.4-8.4-7.2,12.5,11.6,13.9,20.8,1.5,26.3-31.1-6.4-35.6-13.5-1.9-25.4,7.8-25.1,20,.2,7.3,4.3,14.4,11.9,20.4Z"/>
      </g>
    </g>
  </g>
</svg>